<svg width="24" height="24" viewBox="0 0 24 24" fill="none" xmlns="http://www.w3.org/2000/svg">
<g clip-path="url(#clip0)">
<path d="M0.557544 24C0.422779 24 0.291675 23.9467 0.194446 23.8484C0.0662722 23.7188 0.0168337 23.5305 0.0649905 23.3546L1.62523 17.657C0.653858 15.9005 0.141712 13.9135 0.142444 11.8964C0.145191 5.33661 5.48345 0 12.0427 0C15.2241 0.00128174 18.2135 1.24054 20.4604 3.48907C22.7069 5.73779 23.9436 8.72699 23.9427 11.9059C23.9397 18.4658 18.6015 23.8028 12.0427 23.8028C12.0427 23.8028 12.0377 23.8028 12.0375 23.8028C10.1217 23.8021 8.22234 23.3351 6.53118 22.4507L0.687 23.9833C0.644153 23.9945 0.600574 24 0.557544 24Z" fill="#E5E5E5"/>
<path d="M0.557617 23.4884L2.17334 17.5882C1.1767 15.8613 0.652466 13.9025 0.653198 11.8956C0.655762 5.61749 5.76477 0.509766 12.0427 0.509766C15.0892 0.511047 17.9488 1.69684 20.0992 3.84906C22.2494 6.00128 23.4332 8.86212 23.4321 11.9048C23.4293 18.1827 18.3196 23.2912 12.0427 23.2912C12.0424 23.2912 12.0429 23.2912 12.0427 23.2912H12.0378C10.1317 23.2905 8.25885 22.8124 6.59534 21.9051L0.557617 23.4884ZM6.87494 19.8439L7.22083 20.0488C8.67395 20.9112 10.34 21.3673 12.0391 21.3682H12.0427C17.2601 21.3682 21.5067 17.1224 21.5089 11.9041C21.5098 9.37518 20.5262 6.99719 18.7389 5.20844C16.9514 3.41968 14.5749 2.43402 12.0462 2.43292C6.82458 2.43292 2.57819 6.67822 2.57617 11.8964C2.57544 13.6846 3.07568 15.4259 4.02344 16.9329L4.24866 17.291L3.29211 20.7832L6.87494 19.8439Z" fill="white"/>
<path d="M0.953125 23.0914L2.513 17.3952C1.5506 15.7282 1.04468 13.8369 1.04523 11.8998C1.04761 5.83905 5.97992 0.908203 12.0402 0.908203C14.9816 0.909485 17.7422 2.05426 19.8177 4.13196C21.8938 6.20966 23.0364 8.97144 23.0353 11.9084C23.0327 17.9694 18.1002 22.9008 12.0407 22.9008C12.0402 22.9008 12.0409 22.9008 12.0407 22.9008H12.0358C10.1957 22.9001 8.38757 22.4383 6.78174 21.563L0.953125 23.0914Z" fill="#64B161"/>
<path d="M0.557617 23.4884L2.17334 17.5882C1.1767 15.8613 0.652466 13.9025 0.653198 11.8956C0.655762 5.61749 5.76477 0.509766 12.0427 0.509766C15.0892 0.511047 17.9488 1.69684 20.0992 3.84906C22.2494 6.00128 23.4332 8.86212 23.4321 11.9048C23.4293 18.1827 18.3196 23.2912 12.0427 23.2912C12.0424 23.2912 12.0429 23.2912 12.0427 23.2912H12.0378C10.1317 23.2905 8.25885 22.8124 6.59534 21.9051L0.557617 23.4884ZM6.87494 19.8439L7.22083 20.0488C8.67395 20.9112 10.34 21.3673 12.0391 21.3682H12.0427C17.2601 21.3682 21.5067 17.1224 21.5089 11.9041C21.5098 9.37518 20.5262 6.99719 18.7389 5.20844C16.9514 3.41968 14.5749 2.43402 12.0462 2.43292C6.82458 2.43292 2.57819 6.67822 2.57617 11.8964C2.57544 13.6846 3.07568 15.4259 4.02344 16.9329L4.24866 17.291L3.29211 20.7832L6.87494 19.8439Z" fill="white"/>
<path fill-rule="evenodd" clip-rule="evenodd" d="M9.19574 7.13514C8.9826 6.66126 8.75811 6.65174 8.55523 6.6435C8.38934 6.63636 8.19946 6.63672 8.00995 6.63672C7.82025 6.63672 7.5119 6.70813 7.25116 6.99286C6.99023 7.27759 6.25488 7.96607 6.25488 9.36628C6.25488 10.7667 7.27478 12.1196 7.41705 12.3097C7.55932 12.4996 9.3858 15.4648 12.2783 16.6055C14.6823 17.5537 15.1714 17.3651 15.6932 17.3176C16.2151 17.2702 17.3769 16.6292 17.614 15.9647C17.8513 15.3002 17.8513 14.7307 17.7801 14.6115C17.7088 14.493 17.5192 14.4218 17.2346 14.2795C16.9501 14.1373 15.551 13.4486 15.29 13.3538C15.0291 13.2587 14.8394 13.2115 14.6497 13.4964C14.4598 13.7809 13.9149 14.4218 13.7488 14.6115C13.5828 14.8018 13.4167 14.8256 13.1321 14.6831C12.8476 14.5405 11.931 14.2402 10.8437 13.2706C9.99774 12.5164 9.42645 11.5848 9.26037 11.2999C9.09448 11.0153 9.25763 10.8747 9.38543 10.7192C9.6156 10.4393 10.0018 9.93592 10.0966 9.74622C10.1915 9.55616 10.144 9.39008 10.073 9.24762C10.0018 9.10535 9.4486 7.698 9.19574 7.13514Z" fill="white"/>
</g>
<defs>
<clipPath id="clip0">
<rect width="24" height="24" fill="white"/>
</clipPath>
</defs>
</svg>
